<?xml version="1.0" standalone="no"?>
<!DOCTYPE svg PUBLIC "-//W3C//DTD SVG 20010904//EN"
 "http://www.w3.org/TR/2001/REC-SVG-20010904/DTD/svg10.dtd">
<svg version="1.0" xmlns="http://www.w3.org/2000/svg"
 width="400.000000pt" height="400.000000pt" viewBox="0 0 400.000000 400.000000"
 preserveAspectRatio="xMidYMid meet">
<metadata>
Created by potrace 1.14, written by Peter Selinger 2001-2017
</metadata>
<g transform="translate(0.000000,400.000000) scale(0.100000,-0.100000)"
fill="#000000" stroke="none">
<path d="M1848 3632 l-38 -3 0 -327 c1 -180 1 -348 0 -373 l0 -46 -357 1
c-197 1 -363 0 -370 -2 -8 -3 -12 -46 -12 -153 l0 -149 372 0 372 0 0 -1132 0
-1133 170 0 170 0 0 1133 c0 748 3 1132 10 1133 5 1 172 2 370 3 l360 1 0 150
0 150 -370 0 -370 0 -2 310 c0 171 -2 339 -2 375 l-1 65 -132 0 c-73 0 -150
-1 -170 -3z"/>
</g>
</svg>
