<?xml version="1.0" standalone="no"?>
<!DOCTYPE svg PUBLIC "-//W3C//DTD SVG 20010904//EN"
 "http://www.w3.org/TR/2001/REC-SVG-20010904/DTD/svg10.dtd">
<svg version="1.0" xmlns="http://www.w3.org/2000/svg"
 width="260.000000pt" height="260.000000pt" viewBox="0 0 260.000000 260.000000"
 preserveAspectRatio="xMidYMid meet">
<metadata>
Created by potrace 1.11, written by Peter Selinger 2001-2013
</metadata>
<g transform="translate(0.000000,260.000000) scale(0.100000,-0.100000)"
fill="#000000" stroke="none">
<path d="M1132 2560 c-474 -67 -871 -391 -1030 -840 -53 -151 -66 -237 -66
-425 0 -188 13 -274 66 -425 149 -421 503 -730 948 -826 119 -26 391 -26 510
0 254 55 462 168 646 351 181 181 295 390 350 645 26 119 26 391 0 510 -108
500 -480 878 -976 991 -98 23 -348 33 -448 19z m810 -376 c61 -43 80 -85 75
-164 -9 -141 -137 -308 -347 -450 -89 -60 -218 -120 -260 -120 -63 0 -101 58
-67 103 6 9 59 37 115 62 167 72 305 174 375 277 47 69 57 123 27 160 -43 56
-140 46 -297 -31 -176 -87 -306 -210 -376 -357 -29 -62 -32 -78 -32 -159 0
-83 3 -96 36 -165 20 -41 72 -132 117 -201 144 -224 175 -307 152 -412 -30
-144 -200 -280 -400 -323 -90 -19 -242 -14 -310 11 -105 37 -181 109 -210 199
-19 59 -8 154 26 216 45 82 147 149 227 150 56 0 77 -15 77 -54 0 -38 -12 -51
-84 -86 -73 -36 -99 -78 -94 -153 5 -68 27 -102 88 -136 155 -86 475 28 519
185 25 91 8 141 -113 331 -174 274 -200 346 -178 496 32 223 226 443 515 583
114 55 198 75 300 70 67 -2 83 -7 119 -32z"/>
</g>
</svg>
